<svg width="800" height="500" xmlns="http://www.w3.org/2000/svg">
  <defs>
    <linearGradient id="bg" x1="0%" y1="0%" x2="0%" y2="100%">
      <stop offset="0%" style="stop-color:#f0f9ff;stop-opacity:1" />
      <stop offset="100%" style="stop-color:#bae6fd;stop-opacity:1" />
    </linearGradient>
  </defs>
  
  <!-- Background -->
  <rect width="800" height="500" fill="url(#bg)"/>
  
  <!-- Header Bar -->
  <rect x="0" y="0" width="800" height="60" fill="#0c4a6e"/>
  <text x="30" y="38" font-family="Arial, sans-serif" font-size="20" fill="white" font-weight="bold">Customer Portal</text>
  <circle cx="750" cy="30" r="15" fill="#0ea5e9"/>
  <text x="750" y="35" font-family="Arial" font-size="12" fill="white" text-anchor="middle">👤</text>
  
  <!-- Customer Profile -->
  <rect x="30" y="80" width="360" height="180" rx="8" fill="white" stroke="#e2e8f0" stroke-width="1"/>
  <circle cx="120" cy="150" r="40" fill="#0ea5e9"/>
  <text x="120" y="165" font-family="Arial" font-size="20" fill="white" text-anchor="middle" font-weight="bold">JD</text>
  <text x="180" y="145" font-family="Arial" font-size="18" fill="#1e293b" font-weight="bold">John Doe</text>
  <text x="180" y="170" font-family="Arial" font-size="12" fill="#64748b">john.doe@email.com</text>
  <text x="180" y="190" font-family="Arial" font-size="12" fill="#64748b">+91 98765 43210</text>
  <rect x="180" y="200" width="80" height="25" rx="4" fill="#10b981" opacity="0.2"/>
  <text x="220" y="217" font-family="Arial" font-size="11" fill="#10b981" text-anchor="middle">Verified</text>
  
  <!-- Stats -->
  <rect x="50" y="280" width="100" height="60" rx="6" fill="#f0f9ff" stroke="#0ea5e9" stroke-width="1"/>
  <text x="100" y="305" font-family="Arial" font-size="20" fill="#0ea5e9" text-anchor="middle" font-weight="bold">12</text>
  <text x="100" y="325" font-family="Arial" font-size="11" fill="#64748b" text-anchor="middle">Appointments</text>
  
  <rect x="170" y="280" width="100" height="60" rx="6" fill="#f0f9ff" stroke="#0ea5e9" stroke-width="1"/>
  <text x="220" y="305" font-family="Arial" font-size="20" fill="#0ea5e9" text-anchor="middle" font-weight="bold">8</text>
  <text x="220" y="325" font-family="Arial" font-size="11" fill="#64748b" text-anchor="middle">Completed</text>
  
  <rect x="290" y="280" width="80" height="60" rx="6" fill="#f0f9ff" stroke="#0ea5e9" stroke-width="1"/>
  <text x="330" y="305" font-family="Arial" font-size="20" fill="#0ea5e9" text-anchor="middle" font-weight="bold">4</text>
  <text x="330" y="325" font-family="Arial" font-size="11" fill="#64748b" text-anchor="middle">Upcoming</text>
  
  <!-- Upcoming Appointments -->
  <rect x="410" y="80" width="360" height="380" rx="8" fill="white" stroke="#e2e8f0" stroke-width="1"/>
  <text x="590" y="110" font-family="Arial" font-size="16" fill="#1e293b" font-weight="bold" text-anchor="middle">Upcoming Appointments</text>
  
  <!-- Appointment 1 -->
  <rect x="430" y="130" width="320" height="90" rx="6" fill="#f0f9ff" stroke="#0ea5e9" stroke-width="1"/>
  <text x="450" y="155" font-family="Arial" font-size="13" fill="#0c4a6e" font-weight="bold">Nov 15, 2024</text>
  <text x="450" y="175" font-family="Arial" font-size="14" fill="#1e293b" font-weight="bold">Haircut - 10:00 AM</text>
  <text x="450" y="195" font-family="Arial" font-size="11" fill="#64748b">Service Provider: Sarah Johnson</text>
  <text x="450" y="210" font-family="Arial" font-size="11" fill="#64748b">Duration: 30 min • Price: ₹500</text>
  <rect x="680" y="145" width="60" height="25" rx="4" fill="#10b981" opacity="0.2"/>
  <text x="710" y="161" font-family="Arial" font-size="10" fill="#10b981" text-anchor="middle">Confirmed</text>
  
  <!-- Appointment 2 -->
  <rect x="430" y="230" width="320" height="90" rx="6" fill="#f0f9ff" stroke="#0ea5e9" stroke-width="1"/>
  <text x="450" y="255" font-family="Arial" font-size="13" fill="#0c4a6e" font-weight="bold">Nov 18, 2024</text>
  <text x="450" y="275" font-family="Arial" font-size="14" fill="#1e293b" font-weight="bold">Massage - 2:30 PM</text>
  <text x="450" y="295" font-family="Arial" font-size="11" fill="#64748b">Service Provider: Mike Lee</text>
  <text x="450" y="310" font-family="Arial" font-size="11" fill="#64748b">Duration: 60 min • Price: ₹1,500</text>
  <rect x="680" y="245" width="60" height="25" rx="4" fill="#f59e0b" opacity="0.2"/>
  <text x="710" y="261" font-family="Arial" font-size="10" fill="#f59e0b" text-anchor="middle">Pending</text>
  
  <!-- Appointment 3 -->
  <rect x="430" y="330" width="320" height="90" rx="6" fill="#f0f9ff" stroke="#0ea5e9" stroke-width="1"/>
  <text x="450" y="355" font-family="Arial" font-size="13" fill="#0c4a6e" font-weight="bold">Nov 22, 2024</text>
  <text x="450" y="375" font-family="Arial" font-size="14" fill="#1e293b" font-weight="bold">Manicure - 11:00 AM</text>
  <text x="450" y="395" font-family="Arial" font-size="11" fill="#64748b">Service Provider: Lisa Chen</text>
  <text x="450" y="410" font-family="Arial" font-size="11" fill="#64748b">Duration: 45 min • Price: ₹800</text>
  <rect x="680" y="345" width="60" height="25" rx="4" fill="#10b981" opacity="0.2"/>
  <text x="710" y="361" font-family="Arial" font-size="10" fill="#10b981" text-anchor="middle">Confirmed</text>
  
  <!-- Quick Actions -->
  <rect x="30" y="360" width="150" height="40" rx="6" fill="#0ea5e9"/>
  <text x="105" y="385" font-family="Arial" font-size="13" fill="white" text-anchor="middle" font-weight="bold">Book Appointment</text>
  
  <rect x="200" y="360" width="120" height="40" rx="6" fill="white" stroke="#e2e8f0"/>
  <text x="260" y="385" font-family="Arial" font-size="13" fill="#64748b" text-anchor="middle">View History</text>
  
  <rect x="340" y="360" width="50" height="40" rx="6" fill="white" stroke="#e2e8f0"/>
  <text x="365" y="385" font-family="Arial" font-size="13" fill="#64748b" text-anchor="middle">Edit</text>
</svg>




