<svg width="800" height="500" xmlns="http://www.w3.org/2000/svg">
  <defs>
    <linearGradient id="bg" x1="0%" y1="0%" x2="0%" y2="100%">
      <stop offset="0%" style="stop-color:#f0f9ff;stop-opacity:1" />
      <stop offset="100%" style="stop-color:#bae6fd;stop-opacity:1" />
    </linearGradient>
  </defs>
  
  <!-- Background -->
  <rect width="800" height="500" fill="url(#bg)"/>
  
  <!-- Header Bar -->
  <rect x="0" y="0" width="800" height="60" fill="#0c4a6e"/>
  <text x="30" y="38" font-family="Arial, sans-serif" font-size="20" fill="white" font-weight="bold">Appointment Booking</text>
  <circle cx="750" cy="30" r="15" fill="#0ea5e9"/>
  <text x="750" y="35" font-family="Arial" font-size="12" fill="white" text-anchor="middle">📅</text>
  
  <!-- Calendar View -->
  <rect x="30" y="80" width="500" height="380" rx="8" fill="white" stroke="#e2e8f0" stroke-width="1"/>
  
  <!-- Calendar Header -->
  <rect x="30" y="80" width="500" height="50" fill="#0c4a6e"/>
  <text x="280" y="110" font-family="Arial" font-size="18" fill="white" text-anchor="middle" font-weight="bold">November 2024</text>
  
  <!-- Day Headers -->
  <rect x="30" y="130" width="500" height="30" fill="#f1f5f9"/>
  <text x="80" y="150" font-family="Arial" font-size="11" fill="#64748b" text-anchor="middle" font-weight="bold">Mon</text>
  <text x="150" y="150" font-family="Arial" font-size="11" fill="#64748b" text-anchor="middle" font-weight="bold">Tue</text>
  <text x="220" y="150" font-family="Arial" font-size="11" fill="#64748b" text-anchor="middle" font-weight="bold">Wed</text>
  <text x="290" y="150" font-family="Arial" font-size="11" fill="#64748b" text-anchor="middle" font-weight="bold">Thu</text>
  <text x="360" y="150" font-family="Arial" font-size="11" fill="#64748b" text-anchor="middle" font-weight="bold">Fri</text>
  <text x="430" y="150" font-family="Arial" font-size="11" fill="#64748b" text-anchor="middle" font-weight="bold">Sat</text>
  <text x="500" y="150" font-family="Arial" font-size="11" fill="#64748b" text-anchor="middle" font-weight="bold">Sun</text>
  
  <!-- Calendar Days -->
  <!-- Week 1 -->
  <rect x="50" y="170" width="60" height="60" rx="4" fill="white" stroke="#e2e8f0"/>
  <text x="80" y="195" font-family="Arial" font-size="12" fill="#1e293b" text-anchor="middle">1</text>
  
  <rect x="120" y="170" width="60" height="60" rx="4" fill="#dbeafe" stroke="#3b82f6" stroke-width="2"/>
  <text x="150" y="195" font-family="Arial" font-size="12" fill="#1e40af" text-anchor="middle" font-weight="bold">2</text>
  <text x="150" y="215" font-family="Arial" font-size="9" fill="#3b82f6" text-anchor="middle">3 slots</text>
  
  <rect x="190" y="170" width="60" height="60" rx="4" fill="white" stroke="#e2e8f0"/>
  <text x="220" y="195" font-family="Arial" font-size="12" fill="#1e293b" text-anchor="middle">3</text>
  
  <rect x="260" y="170" width="60" height="60" rx="4" fill="#fef3c7" stroke="#f59e0b" stroke-width="2"/>
  <text x="290" y="195" font-family="Arial" font-size="12" fill="#92400e" text-anchor="middle" font-weight="bold">4</text>
  <text x="290" y="215" font-family="Arial" font-size="9" fill="#f59e0b" text-anchor="middle">Booked</text>
  
  <rect x="330" y="170" width="60" height="60" rx="4" fill="white" stroke="#e2e8f0"/>
  <text x="360" y="195" font-family="Arial" font-size="12" fill="#1e293b" text-anchor="middle">5</text>
  
  <rect x="400" y="170" width="60" height="60" rx="4" fill="white" stroke="#e2e8f0"/>
  <text x="430" y="195" font-family="Arial" font-size="12" fill="#1e293b" text-anchor="middle">6</text>
  
  <rect x="470" y="170" width="60" height="60" rx="4" fill="white" stroke="#e2e8f0"/>
  <text x="500" y="195" font-family="Arial" font-size="12" fill="#1e293b" text-anchor="middle">7</text>
  
  <!-- Upcoming Appointments -->
  <rect x="550" y="80" width="220" height="380" rx="8" fill="white" stroke="#e2e8f0" stroke-width="1"/>
  <text x="660" y="110" font-family="Arial" font-size="16" fill="#1e293b" font-weight="bold" text-anchor="middle">Upcoming</text>
  
  <!-- Appointment 1 -->
  <rect x="570" y="140" width="180" height="80" rx="6" fill="#f0f9ff" stroke="#0ea5e9" stroke-width="1"/>
  <text x="580" y="160" font-family="Arial" font-size="11" fill="#0c4a6e" font-weight="bold">Nov 2, 2024</text>
  <text x="580" y="180" font-family="Arial" font-size="12" fill="#1e293b" font-weight="bold">10:00 AM</text>
  <text x="580" y="200" font-family="Arial" font-size="11" fill="#64748b">Dr. Sarah Johnson</text>
  <rect x="580" y="205" width="60" height="18" rx="9" fill="#10b981" opacity="0.2"/>
  <text x="610" y="217" font-family="Arial" font-size="9" fill="#10b981" text-anchor="middle">Confirmed</text>
  
  <!-- Appointment 2 -->
  <rect x="570" y="230" width="180" height="80" rx="6" fill="#f0f9ff" stroke="#0ea5e9" stroke-width="1"/>
  <text x="580" y="250" font-family="Arial" font-size="11" fill="#0c4a6e" font-weight="bold">Nov 4, 2024</text>
  <text x="580" y="270" font-family="Arial" font-size="12" fill="#1e293b" font-weight="bold">2:30 PM</text>
  <text x="580" y="290" font-family="Arial" font-size="11" fill="#64748b">Dr. Sarah Johnson</text>
  <rect x="580" y="295" width="60" height="18" rx="9" fill="#f59e0b" opacity="0.2"/>
  <text x="610" y="307" font-family="Arial" font-size="9" fill="#f59e0b" text-anchor="middle">Pending</text>
  
  <!-- Appointment 3 -->
  <rect x="570" y="320" width="180" height="80" rx="6" fill="#f0f9ff" stroke="#0ea5e9" stroke-width="1"/>
  <text x="580" y="340" font-family="Arial" font-size="11" fill="#0c4a6e" font-weight="bold">Nov 6, 2024</text>
  <text x="580" y="360" font-family="Arial" font-size="12" fill="#1e293b" font-weight="bold">11:00 AM</text>
  <text x="580" y="380" font-family="Arial" font-size="11" fill="#64748b">Dr. Sarah Johnson</text>
  <rect x="580" y="385" width="60" height="18" rx="9" fill="#10b981" opacity="0.2"/>
  <text x="610" y="397" font-family="Arial" font-size="9" fill="#10b981" text-anchor="middle">Confirmed</text>
  
  <!-- New Appointment Button -->
  <rect x="570" y="420" width="180" height="35" rx="6" fill="#0ea5e9"/>
  <text x="660" y="442" font-family="Arial" font-size="13" fill="white" text-anchor="middle" font-weight="bold">Book Appointment</text>
</svg>
