<svg width="800" height="500" xmlns="http://www.w3.org/2000/svg">
  <defs>
    <linearGradient id="bg" x1="0%" y1="0%" x2="0%" y2="100%">
      <stop offset="0%" style="stop-color:#f8fafc;stop-opacity:1" />
      <stop offset="100%" style="stop-color:#e2e8f0;stop-opacity:1" />
    </linearGradient>
  </defs>
  
  <!-- Background -->
  <rect width="800" height="500" fill="url(#bg)"/>
  
  <!-- Header Bar -->
  <rect x="0" y="0" width="800" height="60" fill="#1e293b"/>
  <text x="30" y="38" font-family="Arial, sans-serif" font-size="20" fill="white" font-weight="bold">Attendance Management</text>
  <circle cx="750" cy="30" r="15" fill="#8b5cf6"/>
  <text x="750" y="35" font-family="Arial" font-size="12" fill="white" text-anchor="middle">✓</text>
  
  <!-- Date Selector -->
  <rect x="30" y="80" width="200" height="40" rx="6" fill="white" stroke="#e2e8f0" stroke-width="1"/>
  <text x="50" y="105" font-family="Arial" font-size="13" fill="#64748b">📅 November 2024</text>
  
  <!-- Stats -->
  <rect x="250" y="80" width="120" height="40" rx="6" fill="#10b981" opacity="0.1"/>
  <text x="310" y="105" font-family="Arial" font-size="13" fill="#10b981" text-anchor="middle" font-weight="bold">Present: 228</text>
  
  <rect x="390" y="80" width="120" height="40" rx="6" fill="#f59e0b" opacity="0.1"/>
  <text x="450" y="105" font-family="Arial" font-size="13" fill="#f59e0b" text-anchor="middle" font-weight="bold">Absent: 12</text>
  
  <rect x="530" y="80" width="120" height="40" rx="6" fill="#3b82f6" opacity="0.1"/>
  <text x="590" y="105" font-family="Arial" font-size="13" fill="#3b82f6" text-anchor="middle" font-weight="bold">On Leave: 5</text>
  
  <!-- Attendance Table -->
  <rect x="30" y="140" width="740" height="320" rx="8" fill="white" stroke="#e2e8f0" stroke-width="1"/>
  
  <!-- Table Header -->
  <rect x="50" y="155" width="700" height="35" fill="#f1f5f9"/>
  <text x="70" y="177" font-family="Arial" font-size="12" fill="#64748b" font-weight="bold">Employee</text>
  <text x="250" y="177" font-family="Arial" font-size="12" fill="#64748b" font-weight="bold">Department</text>
  <text x="400" y="177" font-family="Arial" font-size="12" fill="#64748b" font-weight="bold">Check In</text>
  <text x="520" y="177" font-family="Arial" font-size="12" fill="#64748b" font-weight="bold">Check Out</text>
  <text x="640" y="177" font-family="Arial" font-size="12" fill="#64748b" font-weight="bold">Status</text>
  
  <!-- Table Rows -->
  <line x1="50" y1="190" x2="750" y2="190" stroke="#e2e8f0"/>
  <circle cx="80" cy="210" r="15" fill="#3b82f6"/>
  <text x="80" y="216" font-family="Arial" font-size="11" fill="white" text-anchor="middle" font-weight="bold">JD</text>
  <text x="110" y="205" font-family="Arial" font-size="12" fill="#1e293b" font-weight="bold">John Doe</text>
  <text x="110" y="220" font-family="Arial" font-size="10" fill="#64748b">ID: EMP001</text>
  <text x="250" y="213" font-family="Arial" font-size="11" fill="#64748b">Engineering</text>
  <text x="400" y="213" font-family="Arial" font-size="11" fill="#1e293b" font-weight="bold">09:15 AM</text>
  <text x="520" y="213" font-family="Arial" font-size="11" fill="#64748b">--:--</text>
  <rect x="640" y="200" width="60" height="20" rx="10" fill="#10b981" opacity="0.2"/>
  <text x="670" y="213" font-family="Arial" font-size="10" fill="#10b981" text-anchor="middle">Present</text>
  
  <line x1="50" y1="240" x2="750" y2="240" stroke="#e2e8f0"/>
  <circle cx="80" cy="260" r="15" fill="#8b5cf6"/>
  <text x="80" y="266" font-family="Arial" font-size="11" fill="white" text-anchor="middle" font-weight="bold">JS</text>
  <text x="110" y="255" font-family="Arial" font-size="12" fill="#1e293b" font-weight="bold">Jane Smith</text>
  <text x="110" y="270" font-family="Arial" font-size="10" fill="#64748b">ID: EMP002</text>
  <text x="250" y="263" font-family="Arial" font-size="11" fill="#64748b">HR</text>
  <text x="400" y="263" font-family="Arial" font-size="11" fill="#1e293b" font-weight="bold">09:00 AM</text>
  <text x="520" y="263" font-family="Arial" font-size="11" fill="#64748b">--:--</text>
  <rect x="640" y="250" width="60" height="20" rx="10" fill="#10b981" opacity="0.2"/>
  <text x="670" y="263" font-family="Arial" font-size="10" fill="#10b981" text-anchor="middle">Present</text>
  
  <line x1="50" y1="290" x2="750" y2="290" stroke="#e2e8f0"/>
  <circle cx="80" cy="310" r="15" fill="#f59e0b"/>
  <text x="80" y="316" font-family="Arial" font-size="11" fill="white" text-anchor="middle" font-weight="bold">MJ</text>
  <text x="110" y="305" font-family="Arial" font-size="12" fill="#1e293b" font-weight="bold">Mike Johnson</text>
  <text x="110" y="320" font-family="Arial" font-size="10" fill="#64748b">ID: EMP003</text>
  <text x="250" y="313" font-family="Arial" font-size="11" fill="#64748b">Sales</text>
  <text x="400" y="313" font-family="Arial" font-size="11" fill="#64748b">--:--</text>
  <text x="520" y="313" font-family="Arial" font-size="11" fill="#64748b">--:--</text>
  <rect x="640" y="300" width="60" height="20" rx="10" fill="#f59e0b" opacity="0.2"/>
  <text x="670" y="313" font-family="Arial" font-size="10" fill="#f59e0b" text-anchor="middle">Absent</text>
  
  <line x1="50" y1="340" x2="750" y2="340" stroke="#e2e8f0"/>
  <circle cx="80" cy="360" r="15" fill="#10b981"/>
  <text x="80" y="366" font-family="Arial" font-size="11" fill="white" text-anchor="middle" font-weight="bold">SK</text>
  <text x="110" y="355" font-family="Arial" font-size="12" fill="#1e293b" font-weight="bold">Sarah Kim</text>
  <text x="110" y="370" font-family="Arial" font-size="10" fill="#64748b">ID: EMP004</text>
  <text x="250" y="363" font-family="Arial" font-size="11" fill="#64748b">Marketing</text>
  <text x="400" y="363" font-family="Arial" font-size="11" fill="#1e293b" font-weight="bold">08:45 AM</text>
  <text x="520" y="363" font-family="Arial" font-size="11" fill="#1e293b" font-weight="bold">06:30 PM</text>
  <rect x="640" y="350" width="60" height="20" rx="10" fill="#10b981" opacity="0.2"/>
  <text x="670" y="363" font-family="Arial" font-size="10" fill="#10b981" text-anchor="middle">Present</text>
  
  <!-- Bulk Actions -->
  <rect x="30" y="470" width="150" height="30" rx="6" fill="#3b82f6"/>
  <text x="105" y="490" font-family="Arial" font-size="12" fill="white" text-anchor="middle" font-weight="bold">Mark Attendance</text>
  
  <rect x="200" y="470" width="120" height="30" rx="6" fill="white" stroke="#e2e8f0"/>
  <text x="260" y="490" font-family="Arial" font-size="12" fill="#64748b" text-anchor="middle">Export</text>
</svg>

