<svg width="800" height="500" xmlns="http://www.w3.org/2000/svg">
  <defs>
    <linearGradient id="bg" x1="0%" y1="0%" x2="0%" y2="100%">
      <stop offset="0%" style="stop-color:#f0fdf4;stop-opacity:1" />
      <stop offset="100%" style="stop-color:#bbf7d0;stop-opacity:1" />
    </linearGradient>
  </defs>
  
  <!-- Background -->
  <rect width="800" height="500" fill="url(#bg)"/>
  
  <!-- Header Bar -->
  <rect x="0" y="0" width="800" height="60" fill="#14532d"/>
  <text x="30" y="38" font-family="Arial, sans-serif" font-size="20" fill="white" font-weight="bold">Inventory Dashboard</text>
  <circle cx="750" cy="30" r="15" fill="#22c55e"/>
  <text x="750" y="35" font-family="Arial" font-size="12" fill="white" text-anchor="middle">📦</text>
  
  <!-- Stats Cards -->
  <rect x="30" y="80" width="160" height="100" rx="8" fill="white" stroke="#e2e8f0" stroke-width="1"/>
  <text x="40" y="105" font-family="Arial" font-size="12" fill="#64748b">Total Products</text>
  <text x="40" y="135" font-family="Arial" font-size="28" fill="#1e293b" font-weight="bold">2,450</text>
  <rect x="40" y="145" width="140" height="4" rx="2" fill="#22c55e" opacity="0.3"/>
  
  <rect x="210" y="80" width="160" height="100" rx="8" fill="white" stroke="#e2e8f0" stroke-width="1"/>
  <text x="220" y="105" font-family="Arial" font-size="12" fill="#64748b">Low Stock</text>
  <text x="220" y="135" font-family="Arial" font-size="28" fill="#1e293b" font-weight="bold">23</text>
  <rect x="220" y="145" width="140" height="4" rx="2" fill="#f59e0b" opacity="0.3"/>
  
  <rect x="390" y="80" width="160" height="100" rx="8" fill="white" stroke="#e2e8f0" stroke-width="1"/>
  <text x="400" y="105" font-family="Arial" font-size="12" fill="#64748b">Total Value</text>
  <text x="400" y="135" font-family="Arial" font-size="24" fill="#1e293b" font-weight="bold">₹12.5L</text>
  <rect x="400" y="145" width="140" height="4" rx="2" fill="#3b82f6" opacity="0.3"/>
  
  <rect x="570" y="80" width="160" height="100" rx="8" fill="white" stroke="#e2e8f0" stroke-width="1"/>
  <text x="580" y="105" font-family="Arial" font-size="12" fill="#64748b">Warehouses</text>
  <text x="580" y="135" font-family="Arial" font-size="28" fill="#1e293b" font-weight="bold">5</text>
  <rect x="580" y="145" width="140" height="4" rx="2" fill="#8b5cf6" opacity="0.3"/>
  
  <!-- Stock Table -->
  <rect x="30" y="200" width="500" height="250" rx="8" fill="white" stroke="#e2e8f0" stroke-width="1"/>
  <text x="50" y="230" font-family="Arial" font-size="16" fill="#1e293b" font-weight="bold">Stock Overview</text>
  
  <!-- Table Header -->
  <rect x="50" y="245" width="460" height="35" fill="#f1f5f9"/>
  <text x="70" y="267" font-family="Arial" font-size="12" fill="#64748b" font-weight="bold">Product</text>
  <text x="250" y="267" font-family="Arial" font-size="12" fill="#64748b" font-weight="bold">SKU</text>
  <text x="350" y="267" font-family="Arial" font-size="12" fill="#64748b" font-weight="bold">Stock</text>
  <text x="450" y="267" font-family="Arial" font-size="12" fill="#64748b" font-weight="bold">Status</text>
  
  <!-- Table Rows -->
  <line x1="50" y1="280" x2="510" y2="280" stroke="#e2e8f0"/>
  <text x="70" y="300" font-family="Arial" font-size="11" fill="#1e293b">Laptop Pro 15"</text>
  <text x="250" y="300" font-family="Arial" font-size="11" fill="#64748b">LAP-001</text>
  <text x="350" y="300" font-family="Arial" font-size="11" fill="#1e293b" font-weight="bold">45</text>
  <rect x="450" y="285" width="40" height="20" rx="10" fill="#22c55e" opacity="0.2"/>
  <text x="470" y="298" font-family="Arial" font-size="9" fill="#22c55e" text-anchor="middle">Good</text>
  
  <line x1="50" y1="310" x2="510" y2="310" stroke="#e2e8f0"/>
  <text x="70" y="330" font-family="Arial" font-size="11" fill="#1e293b">Wireless Mouse</text>
  <text x="250" y="330" font-family="Arial" font-size="11" fill="#64748b">MOU-002</text>
  <text x="350" y="330" font-family="Arial" font-size="11" fill="#1e293b" font-weight="bold">8</text>
  <rect x="450" y="315" width="40" height="20" rx="10" fill="#f59e0b" opacity="0.2"/>
  <text x="470" y="328" font-family="Arial" font-size="9" fill="#f59e0b" text-anchor="middle">Low</text>
  
  <line x1="50" y1="340" x2="510" y2="340" stroke="#e2e8f0"/>
  <text x="70" y="360" font-family="Arial" font-size="11" fill="#1e293b">USB-C Cable</text>
  <text x="250" y="360" font-family="Arial" font-size="11" fill="#64748b">CAB-003</text>
  <text x="350" y="360" font-family="Arial" font-size="11" fill="#1e293b" font-weight="bold">120</text>
  <rect x="450" y="345" width="40" height="20" rx="10" fill="#22c55e" opacity="0.2"/>
  <text x="470" y="358" font-family="Arial" font-size="9" fill="#22c55e" text-anchor="middle">Good</text>
  
  <line x1="50" y1="370" x2="510" y2="370" stroke="#e2e8f0"/>
  <text x="70" y="390" font-family="Arial" font-size="11" fill="#1e293b">Keyboard Mech</text>
  <text x="250" y="390" font-family="Arial" font-size="11" fill="#64748b">KEY-004</text>
  <text x="350" y="390" font-family="Arial" font-size="11" fill="#1e293b" font-weight="bold">32</text>
  <rect x="450" y="375" width="40" height="20" rx="10" fill="#22c55e" opacity="0.2"/>
  <text x="470" y="388" font-family="Arial" font-size="9" fill="#22c55e" text-anchor="middle">Good</text>
  
  <!-- Warehouse Locations -->
  <rect x="550" y="200" width="220" height="250" rx="8" fill="white" stroke="#e2e8f0" stroke-width="1"/>
  <text x="660" y="230" font-family="Arial" font-size="16" fill="#1e293b" font-weight="bold" text-anchor="middle">Warehouses</text>
  
  <rect x="570" y="250" width="180" height="50" rx="6" fill="#f0fdf4" stroke="#22c55e" stroke-width="1"/>
  <text x="580" y="270" font-family="Arial" font-size="13" fill="#1e293b" font-weight="bold">Main Warehouse</text>
  <text x="580" y="290" font-family="Arial" font-size="11" fill="#64748b">1,250 products</text>
  
  <rect x="570" y="310" width="180" height="50" rx="6" fill="#f0fdf4" stroke="#22c55e" stroke-width="1"/>
  <text x="580" y="330" font-family="Arial" font-size="13" fill="#1e293b" font-weight="bold">North Branch</text>
  <text x="580" y="350" font-family="Arial" font-size="11" fill="#64748b">680 products</text>
  
  <rect x="570" y="370" width="180" height="50" rx="6" fill="#f0fdf4" stroke="#22c55e" stroke-width="1"/>
  <text x="580" y="390" font-family="Arial" font-size="13" fill="#1e293b" font-weight="bold">South Branch</text>
  <text x="580" y="410" font-family="Arial" font-size="11" fill="#64748b">520 products</text>
  
  <!-- Quick Actions -->
  <rect x="550" y="460" width="100" height="35" rx="6" fill="#22c55e"/>
  <text x="600" y="482" font-family="Arial" font-size="12" fill="white" text-anchor="middle" font-weight="bold">Add Stock</text>
  
  <rect x="670" y="460" width="100" height="35" rx="6" fill="#3b82f6"/>
  <text x="720" y="482" font-family="Arial" font-size="12" fill="white" text-anchor="middle" font-weight="bold">Transfer</text>
</svg>
