<svg width="800" height="500" xmlns="http://www.w3.org/2000/svg">
  <defs>
    <linearGradient id="bg" x1="0%" y1="0%" x2="0%" y2="100%">
      <stop offset="0%" style="stop-color:#f0fdf4;stop-opacity:1" />
      <stop offset="100%" style="stop-color:#bbf7d0;stop-opacity:1" />
    </linearGradient>
  </defs>
  
  <!-- Background -->
  <rect width="800" height="500" fill="url(#bg)"/>
  
  <!-- Header Bar -->
  <rect x="0" y="0" width="800" height="60" fill="#14532d"/>
  <text x="30" y="38" font-family="Arial, sans-serif" font-size="20" fill="white" font-weight="bold">Stock Management</text>
  <circle cx="750" cy="30" r="15" fill="#22c55e"/>
  <text x="750" y="35" font-family="Arial" font-size="12" fill="white" text-anchor="middle">📊</text>
  
  <!-- Filters -->
  <rect x="30" y="80" width="200" height="40" rx="6" fill="white" stroke="#e2e8f0" stroke-width="1"/>
  <text x="50" y="105" font-family="Arial" font-size="13" fill="#64748b">🔍 Search products...</text>
  
  <rect x="250" y="80" width="120" height="40" rx="6" fill="white" stroke="#e2e8f0" stroke-width="1"/>
  <text x="310" y="105" font-family="Arial" font-size="13" fill="#64748b" text-anchor="middle">Category ▼</text>
  
  <rect x="390" y="80" width="120" height="40" rx="6" fill="white" stroke="#e2e8f0" stroke-width="1"/>
  <text x="450" y="105" font-family="Arial" font-size="13" fill="#64748b" text-anchor="middle">Status ▼</text>
  
  <rect x="530" y="80" width="120" height="40" rx="6" fill="#22c55e"/>
  <text x="590" y="105" font-family="Arial" font-size="13" fill="white" text-anchor="middle" font-weight="bold">+ Add Stock</text>
  
  <!-- Stock Table -->
  <rect x="30" y="140" width="740" height="320" rx="8" fill="white" stroke="#e2e8f0" stroke-width="1"/>
  
  <!-- Table Header -->
  <rect x="50" y="155" width="700" height="35" fill="#f1f5f9"/>
  <text x="70" y="177" font-family="Arial" font-size="12" fill="#64748b" font-weight="bold">Product</text>
  <text x="200" y="177" font-family="Arial" font-size="12" fill="#64748b" font-weight="bold">SKU</text>
  <text x="300" y="177" font-family="Arial" font-size="12" fill="#64748b" font-weight="bold">Current</text>
  <text x="400" y="177" font-family="Arial" font-size="12" fill="#64748b" font-weight="bold">Min Level</text>
  <text x="500" y="177" font-family="Arial" font-size="12" fill="#64748b" font-weight="bold">Max Level</text>
  <text x="600" y="177" font-family="Arial" font-size="12" fill="#64748b" font-weight="bold">Status</text>
  <text x="700" y="177" font-family="Arial" font-size="12" fill="#64748b" font-weight="bold">Action</text>
  
  <!-- Table Rows -->
  <line x1="50" y1="190" x2="750" y2="190" stroke="#e2e8f0"/>
  <rect x="60" y="200" width="40" height="30" rx="4" fill="#e2e8f0"/>
  <text x="80" y="220" font-family="Arial" font-size="10" fill="#64748b" text-anchor="middle">💻</text>
  <text x="110" y="215" font-family="Arial" font-size="12" fill="#1e293b" font-weight="bold">Laptop Pro 15"</text>
  <text x="200" y="215" font-family="Arial" font-size="11" fill="#64748b">LAP-001</text>
  <text x="300" y="215" font-family="Arial" font-size="12" fill="#1e293b" font-weight="bold">45</text>
  <text x="400" y="215" font-family="Arial" font-size="11" fill="#64748b">10</text>
  <text x="500" y="215" font-family="Arial" font-size="11" fill="#64748b">100</text>
  <rect x="600" y="205" width="50" height="20" rx="10" fill="#22c55e" opacity="0.2"/>
  <text x="625" y="218" font-family="Arial" font-size="9" fill="#22c55e" text-anchor="middle">Good</text>
  <rect x="700" y="205" width="40" height="20" rx="4" fill="#3b82f6" opacity="0.1"/>
  <text x="720" y="218" font-family="Arial" font-size="9" fill="#3b82f6" text-anchor="middle">Edit</text>
  
  <line x1="50" y1="240" x2="750" y2="240" stroke="#e2e8f0"/>
  <rect x="60" y="250" width="40" height="30" rx="4" fill="#e2e8f0"/>
  <text x="80" y="270" font-family="Arial" font-size="10" fill="#64748b" text-anchor="middle">⌨️</text>
  <text x="110" y="265" font-family="Arial" font-size="12" fill="#1e293b" font-weight="bold">Mechanical Keyboard</text>
  <text x="200" y="265" font-family="Arial" font-size="11" fill="#64748b">KEY-002</text>
  <text x="300" y="265" font-family="Arial" font-size="12" fill="#1e293b" font-weight="bold">32</text>
  <text x="400" y="265" font-family="Arial" font-size="11" fill="#64748b">15</text>
  <text x="500" y="265" font-family="Arial" font-size="11" fill="#64748b">80</text>
  <rect x="600" y="255" width="50" height="20" rx="10" fill="#22c55e" opacity="0.2"/>
  <text x="625" y="268" font-family="Arial" font-size="9" fill="#22c55e" text-anchor="middle">Good</text>
  <rect x="700" y="255" width="40" height="20" rx="4" fill="#3b82f6" opacity="0.1"/>
  <text x="720" y="268" font-family="Arial" font-size="9" fill="#3b82f6" text-anchor="middle">Edit</text>
  
  <line x1="50" y1="290" x2="750" y2="290" stroke="#e2e8f0"/>
  <rect x="60" y="300" width="40" height="30" rx="4" fill="#e2e8f0"/>
  <text x="80" y="320" font-family="Arial" font-size="10" fill="#64748b" text-anchor="middle">🖱️</text>
  <text x="110" y="315" font-family="Arial" font-size="12" fill="#1e293b" font-weight="bold">Wireless Mouse</text>
  <text x="200" y="315" font-family="Arial" font-size="11" fill="#64748b">MOU-003</text>
  <text x="300" y="315" font-family="Arial" font-size="12" fill="#f59e0b" font-weight="bold">8</text>
  <text x="400" y="315" font-family="Arial" font-size="11" fill="#64748b">20</text>
  <text x="500" y="315" font-family="Arial" font-size="11" fill="#64748b">150</text>
  <rect x="600" y="305" width="50" height="20" rx="10" fill="#f59e0b" opacity="0.2"/>
  <text x="625" y="318" font-family="Arial" font-size="9" fill="#f59e0b" text-anchor="middle">Low</text>
  <rect x="700" y="305" width="50" height="20" rx="4" fill="#f59e0b"/>
  <text x="725" y="318" font-family="Arial" font-size="9" fill="white" text-anchor="middle">Reorder</text>
  
  <line x1="50" y1="340" x2="750" y2="340" stroke="#e2e8f0"/>
  <rect x="60" y="350" width="40" height="30" rx="4" fill="#e2e8f0"/>
  <text x="80" y="370" font-family="Arial" font-size="10" fill="#64748b" text-anchor="middle">📱</text>
  <text x="110" y="365" font-family="Arial" font-size="12" fill="#1e293b" font-weight="bold">Smartphone Pro</text>
  <text x="200" y="365" font-family="Arial" font-size="11" fill="#64748b">PHN-004</text>
  <text x="300" y="365" font-family="Arial" font-size="12" fill="#1e293b" font-weight="bold">120</text>
  <text x="400" y="365" font-family="Arial" font-size="11" fill="#64748b">30</text>
  <text x="500" y="365" font-family="Arial" font-size="11" fill="#64748b">200</text>
  <rect x="600" y="355" width="50" height="20" rx="10" fill="#22c55e" opacity="0.2"/>
  <text x="625" y="368" font-family="Arial" font-size="9" fill="#22c55e" text-anchor="middle">Good</text>
  <rect x="700" y="355" width="40" height="20" rx="4" fill="#3b82f6" opacity="0.1"/>
  <text x="720" y="368" font-family="Arial" font-size="9" fill="#3b82f6" text-anchor="middle">Edit</text>
  
  <line x1="50" y1="390" x2="750" y2="390" stroke="#e2e8f0"/>
  <rect x="60" y="400" width="40" height="30" rx="4" fill="#e2e8f0"/>
  <text x="80" y="420" font-family="Arial" font-size="10" fill="#64748b" text-anchor="middle">🎧</text>
  <text x="110" y="415" font-family="Arial" font-size="12" fill="#1e293b" font-weight="bold">Wireless Headphones</text>
  <text x="200" y="415" font-family="Arial" font-size="11" fill="#64748b">AUD-005</text>
  <text x="300" y="415" font-family="Arial" font-size="12" fill="#1e293b" font-weight="bold">65</text>
  <text x="400" y="415" font-family="Arial" font-size="11" fill="#64748b">25</text>
  <text x="500" y="415" font-family="Arial" font-size="11" fill="#64748b">120</text>
  <rect x="600" y="405" width="50" height="20" rx="10" fill="#22c55e" opacity="0.2"/>
  <text x="625" y="418" font-family="Arial" font-size="9" fill="#22c55e" text-anchor="middle">Good</text>
  <rect x="700" y="405" width="40" height="20" rx="4" fill="#3b82f6" opacity="0.1"/>
  <text x="720" y="418" font-family="Arial" font-size="9" fill="#3b82f6" text-anchor="middle">Edit</text>
  
  <!-- Summary -->
  <rect x="30" y="470" width="740" height="30" rx="4" fill="#f1f5f9" stroke="#e2e8f0"/>
  <text x="50" y="490" font-family="Arial" font-size="11" fill="#64748b">Total Products: 2,450</text>
  <text x="250" y="490" font-family="Arial" font-size="11" fill="#64748b">Low Stock Items: 23</text>
  <text x="450" y="490" font-family="Arial" font-size="11" fill="#64748b">Out of Stock: 5</text>
  <text x="650" y="490" font-family="Arial" font-size="11" fill="#22c55e" font-weight="bold">Stock Value: ₹12.5L</text>
</svg>




