<svg width="800" height="500" xmlns="http://www.w3.org/2000/svg">
  <defs>
    <linearGradient id="bg" x1="0%" y1="0%" x2="0%" y2="100%">
      <stop offset="0%" style="stop-color:#f8fafc;stop-opacity:1" />
      <stop offset="100%" style="stop-color:#e2e8f0;stop-opacity:1" />
    </linearGradient>
  </defs>
  
  <!-- Background -->
  <rect width="800" height="500" fill="url(#bg)"/>
  
  <!-- Header Bar -->
  <rect x="0" y="0" width="800" height="60" fill="#1e293b"/>
  <text x="30" y="38" font-family="Arial, sans-serif" font-size="20" fill="white" font-weight="bold">New Sale</text>
  <circle cx="750" cy="30" r="15" fill="#10b981"/>
  <text x="750" y="35" font-family="Arial" font-size="12" fill="white" text-anchor="middle">₹</text>
  
  <!-- Product Search -->
  <rect x="30" y="80" width="500" height="50" rx="6" fill="white" stroke="#e2e8f0" stroke-width="1"/>
  <text x="50" y="110" font-family="Arial" font-size="14" fill="#64748b">🔍 Search products...</text>
  
  <!-- Product Grid -->
  <rect x="30" y="150" width="500" height="280" rx="8" fill="white" stroke="#e2e8f0" stroke-width="1"/>
  <text x="50" y="180" font-family="Arial" font-size="14" fill="#1e293b" font-weight="bold">Products</text>
  
  <!-- Product Cards -->
  <rect x="50" y="200" width="110" height="90" rx="6" fill="#f1f5f9" stroke="#e2e8f0"/>
  <rect x="60" y="210" width="90" height="40" rx="4" fill="#e2e8f0"/>
  <text x="105" y="235" font-family="Arial" font-size="10" fill="#64748b" text-anchor="middle">📦</text>
  <text x="105" y="255" font-family="Arial" font-size="11" fill="#1e293b" text-anchor="middle" font-weight="bold">Laptop</text>
  <text x="105" y="270" font-family="Arial" font-size="10" fill="#64748b" text-anchor="middle">₹45,000</text>
  
  <rect x="180" y="200" width="110" height="90" rx="6" fill="#f1f5f9" stroke="#e2e8f0"/>
  <rect x="190" y="210" width="90" height="40" rx="4" fill="#e2e8f0"/>
  <text x="235" y="235" font-family="Arial" font-size="10" fill="#64748b" text-anchor="middle">⌨️</text>
  <text x="235" y="255" font-family="Arial" font-size="11" fill="#1e293b" text-anchor="middle" font-weight="bold">Keyboard</text>
  <text x="235" y="270" font-family="Arial" font-size="10" fill="#64748b" text-anchor="middle">₹2,500</text>
  
  <rect x="310" y="200" width="110" height="90" rx="6" fill="#f1f5f9" stroke="#e2e8f0"/>
  <rect x="320" y="210" width="90" height="40" rx="4" fill="#e2e8f0"/>
  <text x="365" y="235" font-family="Arial" font-size="10" fill="#64748b" text-anchor="middle">🖱️</text>
  <text x="365" y="255" font-family="Arial" font-size="11" fill="#1e293b" text-anchor="middle" font-weight="bold">Mouse</text>
  <text x="365" y="270" font-family="Arial" font-size="10" fill="#64748b" text-anchor="middle">₹800</text>
  
  <rect x="440" y="200" width="110" height="90" rx="6" fill="#f1f5f9" stroke="#e2e8f0"/>
  <rect x="450" y="210" width="90" height="40" rx="4" fill="#e2e8f0"/>
  <text x="495" y="235" font-family="Arial" font-size="10" fill="#64748b" text-anchor="middle">📱</text>
  <text x="495" y="255" font-family="Arial" font-size="11" fill="#1e293b" text-anchor="middle" font-weight="bold">Phone</text>
  <text x="495" y="270" font-family="Arial" font-size="10" fill="#64748b" text-anchor="middle">₹25,000</text>
  
  <!-- Cart Section -->
  <rect x="550" y="80" width="220" height="350" rx="8" fill="white" stroke="#e2e8f0" stroke-width="1"/>
  <text x="660" y="110" font-family="Arial" font-size="16" fill="#1e293b" font-weight="bold" text-anchor="middle">Cart</text>
  
  <!-- Cart Items -->
  <rect x="570" y="130" width="180" height="60" rx="6" fill="#f1f5f9" stroke="#e2e8f0"/>
  <text x="580" y="150" font-family="Arial" font-size="12" fill="#1e293b" font-weight="bold">Laptop Pro</text>
  <text x="580" y="170" font-family="Arial" font-size="11" fill="#64748b">₹45,000 × 1</text>
  <text x="700" y="170" font-family="Arial" font-size="12" fill="#1e293b" font-weight="bold">₹45,000</text>
  
  <rect x="570" y="200" width="180" height="60" rx="6" fill="#f1f5f9" stroke="#e2e8f0"/>
  <text x="580" y="220" font-family="Arial" font-size="12" fill="#1e293b" font-weight="bold">Wireless Mouse</text>
  <text x="580" y="240" font-family="Arial" font-size="11" fill="#64748b">₹800 × 2</text>
  <text x="700" y="240" font-family="Arial" font-size="12" fill="#1e293b" font-weight="bold">₹1,600</text>
  
  <!-- Totals -->
  <line x1="570" y1="280" x2="750" y2="280" stroke="#e2e8f0"/>
  <text x="580" y="305" font-family="Arial" font-size="12" fill="#64748b">Subtotal:</text>
  <text x="700" y="305" font-family="Arial" font-size="12" fill="#1e293b" font-weight="bold">₹46,600</text>
  
  <text x="580" y="330" font-family="Arial" font-size="12" fill="#64748b">Tax (18%):</text>
  <text x="700" y="330" font-family="Arial" font-size="12" fill="#1e293b" font-weight="bold">₹8,388</text>
  
  <line x1="570" y1="345" x2="750" y2="345" stroke="#e2e8f0"/>
  <text x="580" y="365" font-family="Arial" font-size="14" fill="#1e293b" font-weight="bold">Total:</text>
  <text x="700" y="365" font-family="Arial" font-size="18" fill="#10b981" font-weight="bold">₹54,988</text>
  
  <!-- Payment Buttons -->
  <rect x="570" y="380" width="85" height="35" rx="6" fill="#3b82f6"/>
  <text x="612" y="402" font-family="Arial" font-size="12" fill="white" text-anchor="middle" font-weight="bold">Cash</text>
  
  <rect x="665" y="380" width="85" height="35" rx="6" fill="#10b981"/>
  <text x="707" y="402" font-family="Arial" font-size="12" fill="white" text-anchor="middle" font-weight="bold">Card</text>
</svg>

