<svg width="800" height="500" xmlns="http://www.w3.org/2000/svg">
  <defs>
    <linearGradient id="bg" x1="0%" y1="0%" x2="0%" y2="100%">
      <stop offset="0%" style="stop-color:#f8fafc;stop-opacity:1" />
      <stop offset="100%" style="stop-color:#e2e8f0;stop-opacity:1" />
    </linearGradient>
  </defs>
  
  <!-- Background -->
  <rect width="800" height="500" fill="url(#bg)"/>
  
  <!-- Header Bar -->
  <rect x="0" y="0" width="800" height="60" fill="#1e293b"/>
  <text x="30" y="38" font-family="Arial, sans-serif" font-size="20" fill="white" font-weight="bold">Inventory Management</text>
  <circle cx="750" cy="30" r="15" fill="#f59e0b"/>
  <text x="750" y="35" font-family="Arial" font-size="12" fill="white" text-anchor="middle">📦</text>
  
  <!-- Search and Filters -->
  <rect x="30" y="80" width="400" height="40" rx="6" fill="white" stroke="#e2e8f0" stroke-width="1"/>
  <text x="50" y="105" font-family="Arial" font-size="13" fill="#64748b">🔍 Search products...</text>
  
  <rect x="450" y="80" width="120" height="40" rx="6" fill="white" stroke="#e2e8f0" stroke-width="1"/>
  <text x="510" y="105" font-family="Arial" font-size="13" fill="#64748b" text-anchor="middle">Category ▼</text>
  
  <rect x="590" y="80" width="120" height="40" rx="6" fill="white" stroke="#e2e8f0" stroke-width="1"/>
  <text x="650" y="105" font-family="Arial" font-size="13" fill="#64748b" text-anchor="middle">Status ▼</text>
  
  <rect x="730" y="80" width="40" height="40" rx="6" fill="#3b82f6"/>
  <text x="750" y="105" font-family="Arial" font-size="18" fill="white" text-anchor="middle">+</text>
  
  <!-- Product Table -->
  <rect x="30" y="140" width="740" height="320" rx="8" fill="white" stroke="#e2e8f0" stroke-width="1"/>
  
  <!-- Table Header -->
  <rect x="50" y="155" width="700" height="35" fill="#f1f5f9"/>
  <text x="70" y="177" font-family="Arial" font-size="12" fill="#64748b" font-weight="bold">Product</text>
  <text x="250" y="177" font-family="Arial" font-size="12" fill="#64748b" font-weight="bold">SKU</text>
  <text x="350" y="177" font-family="Arial" font-size="12" fill="#64748b" font-weight="bold">Stock</text>
  <text x="450" y="177" font-family="Arial" font-size="12" fill="#64748b" font-weight="bold">Price</text>
  <text x="550" y="177" font-family="Arial" font-size="12" fill="#64748b" font-weight="bold">Category</text>
  <text x="680" y="177" font-family="Arial" font-size="12" fill="#64748b" font-weight="bold">Actions</text>
  
  <!-- Table Rows -->
  <line x1="50" y1="190" x2="750" y2="190" stroke="#e2e8f0"/>
  <rect x="60" y="200" width="40" height="30" rx="4" fill="#e2e8f0"/>
  <text x="80" y="220" font-family="Arial" font-size="10" fill="#64748b" text-anchor="middle">📦</text>
  <text x="110" y="215" font-family="Arial" font-size="12" fill="#1e293b" font-weight="bold">Laptop Pro 15"</text>
  <text x="250" y="215" font-family="Arial" font-size="11" fill="#64748b">LAP-001</text>
  <text x="350" y="215" font-family="Arial" font-size="12" fill="#1e293b" font-weight="bold">45</text>
  <text x="450" y="215" font-family="Arial" font-size="12" fill="#1e293b">₹45,000</text>
  <text x="550" y="215" font-family="Arial" font-size="11" fill="#64748b">Electronics</text>
  <rect x="680" y="205" width="50" height="20" rx="4" fill="#3b82f6" opacity="0.1"/>
  <text x="705" y="218" font-family="Arial" font-size="10" fill="#3b82f6" text-anchor="middle">Edit</text>
  
  <line x1="50" y1="240" x2="750" y2="240" stroke="#e2e8f0"/>
  <rect x="60" y="250" width="40" height="30" rx="4" fill="#e2e8f0"/>
  <text x="80" y="270" font-family="Arial" font-size="10" fill="#64748b" text-anchor="middle">⌨️</text>
  <text x="110" y="265" font-family="Arial" font-size="12" fill="#1e293b" font-weight="bold">Mechanical Keyboard</text>
  <text x="250" y="265" font-family="Arial" font-size="11" fill="#64748b">KEY-002</text>
  <text x="350" y="265" font-family="Arial" font-size="12" fill="#1e293b" font-weight="bold">32</text>
  <text x="450" y="265" font-family="Arial" font-size="12" fill="#1e293b">₹2,500</text>
  <text x="550" y="265" font-family="Arial" font-size="11" fill="#64748b">Accessories</text>
  <rect x="680" y="255" width="50" height="20" rx="4" fill="#3b82f6" opacity="0.1"/>
  <text x="705" y="268" font-family="Arial" font-size="10" fill="#3b82f6" text-anchor="middle">Edit</text>
  
  <line x1="50" y1="290" x2="750" y2="290" stroke="#e2e8f0"/>
  <rect x="60" y="300" width="40" height="30" rx="4" fill="#e2e8f0"/>
  <text x="80" y="320" font-family="Arial" font-size="10" fill="#64748b" text-anchor="middle">🖱️</text>
  <text x="110" y="315" font-family="Arial" font-size="12" fill="#1e293b" font-weight="bold">Wireless Mouse</text>
  <text x="250" y="315" font-family="Arial" font-size="11" fill="#64748b">MOU-003</text>
  <text x="350" y="315" font-family="Arial" font-size="12" fill="#f59e0b" font-weight="bold">8</text>
  <text x="450" y="315" font-family="Arial" font-size="12" fill="#1e293b">₹800</text>
  <text x="550" y="315" font-family="Arial" font-size="11" fill="#64748b">Accessories</text>
  <rect x="680" y="305" width="50" height="20" rx="4" fill="#f59e0b" opacity="0.1"/>
  <text x="705" y="318" font-family="Arial" font-size="10" fill="#f59e0b" text-anchor="middle">Low</text>
  
  <line x1="50" y1="340" x2="750" y2="340" stroke="#e2e8f0"/>
  <rect x="60" y="350" width="40" height="30" rx="4" fill="#e2e8f0"/>
  <text x="80" y="370" font-family="Arial" font-size="10" fill="#64748b" text-anchor="middle">📱</text>
  <text x="110" y="365" font-family="Arial" font-size="12" fill="#1e293b" font-weight="bold">Smartphone Pro</text>
  <text x="250" y="365" font-family="Arial" font-size="11" fill="#64748b">PHN-004</text>
  <text x="350" y="365" font-family="Arial" font-size="12" fill="#1e293b" font-weight="bold">120</text>
  <text x="450" y="365" font-family="Arial" font-size="12" fill="#1e293b">₹25,000</text>
  <text x="550" y="365" font-family="Arial" font-size="11" fill="#64748b">Electronics</text>
  <rect x="680" y="355" width="50" height="20" rx="4" fill="#3b82f6" opacity="0.1"/>
  <text x="705" y="368" font-family="Arial" font-size="10" fill="#3b82f6" text-anchor="middle">Edit</text>
  
  <!-- Pagination -->
  <rect x="600" y="470" width="170" height="30" rx="4" fill="#f1f5f9" stroke="#e2e8f0"/>
  <text x="610" y="490" font-family="Arial" font-size="11" fill="#64748b">Page 1 of 15</text>
  <text x="720" y="490" font-family="Arial" font-size="11" fill="#3b82f6">Next →</text>
</svg>

