<svg width="800" height="500" xmlns="http://www.w3.org/2000/svg">
  <defs>
    <linearGradient id="bg" x1="0%" y1="0%" x2="0%" y2="100%">
      <stop offset="0%" style="stop-color:#fff7ed;stop-opacity:1" />
      <stop offset="100%" style="stop-color:#fed7aa;stop-opacity:1" />
    </linearGradient>
  </defs>
  
  <!-- Background -->
  <rect width="800" height="500" fill="url(#bg)"/>
  
  <!-- Header Bar -->
  <rect x="0" y="0" width="800" height="60" fill="#7c2d12"/>
  <text x="30" y="38" font-family="Arial, sans-serif" font-size="20" fill="white" font-weight="bold">Kitchen Display System</text>
  <circle cx="750" cy="30" r="15" fill="#f59e0b"/>
  <text x="750" y="35" font-family="Arial" font-size="12" fill="white" text-anchor="middle">👨‍🍳</text>
  
  <!-- Station Tabs -->
  <rect x="30" y="80" width="120" height="35" rx="6" fill="#7c2d12"/>
  <text x="90" y="102" font-family="Arial" font-size="13" fill="white" text-anchor="middle" font-weight="bold">All Stations</text>
  
  <rect x="160" y="80" width="120" height="35" rx="6" fill="white" stroke="#7c2d12" stroke-width="1"/>
  <text x="220" y="102" font-family="Arial" font-size="13" fill="#7c2d12" text-anchor="middle">Pizza Station</text>
  
  <rect x="290" y="80" width="120" height="35" rx="6" fill="white" stroke="#7c2d12" stroke-width="1"/>
  <text x="350" y="102" font-family="Arial" font-size="13" fill="#7c2d12" text-anchor="middle">Salad Station</text>
  
  <rect x="420" y="80" width="120" height="35" rx="6" fill="white" stroke="#7c2d12" stroke-width="1"/>
  <text x="480" y="102" font-family="Arial" font-size="13" fill="#7c2d12" text-anchor="middle">Grill Station</text>
  
  <!-- Kitchen Orders Grid -->
  <!-- Order 1 -->
  <rect x="30" y="135" width="180" height="160" rx="8" fill="white" stroke="#f59e0b" stroke-width="2"/>
  <rect x="30" y="135" width="180" height="30" rx="8" fill="#f59e0b"/>
  <text x="120" y="155" font-family="Arial" font-size="14" fill="white" text-anchor="middle" font-weight="bold">Order #001</text>
  <text x="50" y="185" font-family="Arial" font-size="12" fill="#1e293b" font-weight="bold">Table 5</text>
  <text x="50" y="205" font-family="Arial" font-size="11" fill="#64748b">Time: 12:30</text>
  <line x1="50" y1="220" x2="190" y2="220" stroke="#e2e8f0"/>
  <text x="50" y="240" font-family="Arial" font-size="11" fill="#1e293b">2x Margherita Pizza</text>
  <text x="50" y="260" font-family="Arial" font-size="11" fill="#1e293b">1x Garlic Bread</text>
  <rect x="50" y="270" width="130" height="20" rx="4" fill="#f59e0b" opacity="0.2"/>
  <text x="115" y="283" font-family="Arial" font-size="10" fill="#f59e0b" text-anchor="middle">Preparing...</text>
  
  <!-- Order 2 -->
  <rect x="230" y="135" width="180" height="160" rx="8" fill="white" stroke="#10b981" stroke-width="2"/>
  <rect x="230" y="135" width="180" height="30" rx="8" fill="#10b981"/>
  <text x="320" y="155" font-family="Arial" font-size="14" fill="white" text-anchor="middle" font-weight="bold">Order #002</text>
  <text x="250" y="185" font-family="Arial" font-size="12" fill="#1e293b" font-weight="bold">Table 12</text>
  <text x="250" y="205" font-family="Arial" font-size="11" fill="#64748b">Time: 12:25</text>
  <line x1="250" y1="220" x2="390" y2="220" stroke="#e2e8f0"/>
  <text x="250" y="240" font-family="Arial" font-size="11" fill="#1e293b">1x Classic Burger</text>
  <text x="250" y="260" font-family="Arial" font-size="11" fill="#1e293b">2x Fries</text>
  <rect x="250" y="270" width="130" height="20" rx="4" fill="#10b981" opacity="0.2"/>
  <text x="315" y="283" font-family="Arial" font-size="10" fill="#10b981" text-anchor="middle">Ready!</text>
  
  <!-- Order 3 -->
  <rect x="430" y="135" width="180" height="160" rx="8" fill="white" stroke="#3b82f6" stroke-width="2"/>
  <rect x="430" y="135" width="180" height="30" rx="8" fill="#3b82f6"/>
  <text x="520" y="155" font-family="Arial" font-size="14" fill="white" text-anchor="middle" font-weight="bold">Order #003</text>
  <text x="450" y="185" font-family="Arial" font-size="12" fill="#1e293b" font-weight="bold">Delivery</text>
  <text x="450" y="205" font-family="Arial" font-size="11" fill="#64748b">Time: 12:35</text>
  <line x1="450" y1="220" x2="590" y2="220" stroke="#e2e8f0"/>
  <text x="450" y="240" font-family="Arial" font-size="11" fill="#1e293b">3x Pasta Carbonara</text>
  <text x="450" y="260" font-family="Arial" font-size="11" fill="#1e293b">2x Garlic Bread</text>
  <rect x="450" y="270" width="130" height="20" rx="4" fill="#3b82f6" opacity="0.2"/>
  <text x="515" y="283" font-family="Arial" font-size="10" fill="#3b82f6" text-anchor="middle">New Order</text>
  
  <!-- Order 4 -->
  <rect x="630" y="135" width="140" height="160" rx="8" fill="white" stroke="#8b5cf6" stroke-width="2"/>
  <rect x="630" y="135" width="140" height="30" rx="8" fill="#8b5cf6"/>
  <text x="700" y="155" font-family="Arial" font-size="14" fill="white" text-anchor="middle" font-weight="bold">Order #004</text>
  <text x="650" y="185" font-family="Arial" font-size="12" fill="#1e293b" font-weight="bold">Table 8</text>
  <text x="650" y="205" font-family="Arial" font-size="11" fill="#64748b">Time: 12:40</text>
  <line x1="650" y1="220" x2="750" y2="220" stroke="#e2e8f0"/>
  <text x="650" y="240" font-family="Arial" font-size="11" fill="#1e293b">1x Caesar Salad</text>
  <text x="650" y="260" font-family="Arial" font-size="11" fill="#1e293b">1x Soup</text>
  <rect x="650" y="270" width="90" height="20" rx="4" fill="#8b5cf6" opacity="0.2"/>
  <text x="695" y="283" font-family="Arial" font-size="10" fill="#8b5cf6" text-anchor="middle">Queued</text>
  
  <!-- Timer Display -->
  <rect x="30" y="315" width="740" height="60" rx="8" fill="#1e293b"/>
  <text x="400" y="345" font-family="Arial" font-size="18" fill="white" text-anchor="middle" font-weight="bold">Average Prep Time: 12 minutes</text>
  <text x="400" y="365" font-family="Arial" font-size="14" fill="rgba(255,255,255,0.8)" text-anchor="middle">4 orders in progress • 2 ready for pickup</text>
  
  <!-- Quick Actions -->
  <rect x="30" y="390" width="150" height="50" rx="6" fill="#10b981"/>
  <text x="105" y="420" font-family="Arial" font-size="14" fill="white" text-anchor="middle" font-weight="bold">Mark Complete</text>
  
  <rect x="200" y="390" width="150" height="50" rx="6" fill="#f59e0b"/>
  <text x="275" y="420" font-family="Arial" font-size="14" fill="white" text-anchor="middle" font-weight="bold">Call Waiter</text>
  
  <rect x="370" y="390" width="150" height="50" rx="6" fill="#3b82f6"/>
  <text x="445" y="420" font-family="Arial" font-size="14" fill="white" text-anchor="middle" font-weight="bold">View All</text>
</svg>




