<svg width="800" height="500" xmlns="http://www.w3.org/2000/svg">
  <defs>
    <linearGradient id="bg" x1="0%" y1="0%" x2="0%" y2="100%">
      <stop offset="0%" style="stop-color:#fff7ed;stop-opacity:1" />
      <stop offset="100%" style="stop-color:#fed7aa;stop-opacity:1" />
    </linearGradient>
  </defs>
  
  <!-- Background -->
  <rect width="800" height="500" fill="url(#bg)"/>
  
  <!-- Header Bar -->
  <rect x="0" y="0" width="800" height="60" fill="#7c2d12"/>
  <text x="30" y="38" font-family="Arial, sans-serif" font-size="20" fill="white" font-weight="bold">Active Orders</text>
  <circle cx="750" cy="30" r="15" fill="#f59e0b"/>
  <text x="750" y="35" font-family="Arial" font-size="12" fill="white" text-anchor="middle">📋</text>
  
  <!-- Status Tabs -->
  <rect x="30" y="80" width="100" height="35" rx="6" fill="#7c2d12"/>
  <text x="80" y="102" font-family="Arial" font-size="13" fill="white" text-anchor="middle" font-weight="bold">All (12)</text>
  
  <rect x="140" y="80" width="100" height="35" rx="6" fill="white" stroke="#7c2d12" stroke-width="1"/>
  <text x="190" y="102" font-family="Arial" font-size="13" fill="#7c2d12" text-anchor="middle">Pending (5)</text>
  
  <rect x="250" y="80" width="100" height="35" rx="6" fill="white" stroke="#7c2d12" stroke-width="1"/>
  <text x="300" y="102" font-family="Arial" font-size="13" fill="#7c2d12" text-anchor="middle">Preparing (4)</text>
  
  <rect x="360" y="80" width="100" height="35" rx="6" fill="white" stroke="#7c2d12" stroke-width="1"/>
  <text x="410" y="102" font-family="Arial" font-size="13" fill="#7c2d12" text-anchor="middle">Ready (3)</text>
  
  <!-- Orders List -->
  <rect x="30" y="135" width="360" height="325" rx="8" fill="white" stroke="#e2e8f0" stroke-width="1"/>
  
  <!-- Order Card 1 -->
  <rect x="50" y="155" width="320" height="90" rx="6" fill="#fef3c7" stroke="#fde68a" stroke-width="1"/>
  <text x="70" y="180" font-family="Arial" font-size="13" fill="#1e293b" font-weight="bold">Order #ORD-001</text>
  <text x="70" y="200" font-family="Arial" font-size="11" fill="#64748b">Table 5 • John Doe</text>
  <text x="70" y="220" font-family="Arial" font-size="11" fill="#64748b">2x Margherita Pizza, 1x Coke</text>
  <text x="70" y="235" font-family="Arial" font-size="12" fill="#1e293b" font-weight="bold">₹598</text>
  <rect x="300" y="170" width="60" height="25" rx="4" fill="#f59e0b"/>
  <text x="330" y="187" font-family="Arial" font-size="11" fill="white" text-anchor="middle">Preparing</text>
  <text x="330" y="230" font-family="Arial" font-size="10" fill="#64748b" text-anchor="middle">15 min</text>
  
  <!-- Order Card 2 -->
  <rect x="50" y="255" width="320" height="90" rx="6" fill="#fef3c7" stroke="#fde68a" stroke-width="1"/>
  <text x="70" y="280" font-family="Arial" font-size="13" fill="#1e293b" font-weight="bold">Order #ORD-002</text>
  <text x="70" y="300" font-family="Arial" font-size="11" fill="#64748b">Table 12 • Jane Smith</text>
  <text x="70" y="320" font-family="Arial" font-size="11" fill="#64748b">1x Burger, 2x Fries, 1x Shake</text>
  <text x="70" y="335" font-family="Arial" font-size="12" fill="#1e293b" font-weight="bold">₹450</text>
  <rect x="300" y="270" width="60" height="25" rx="4" fill="#10b981"/>
  <text x="330" y="287" font-family="Arial" font-size="11" fill="white" text-anchor="middle">Ready</text>
  <text x="330" y="330" font-family="Arial" font-size="10" fill="#64748b" text-anchor="middle">5 min</text>
  
  <!-- Order Card 3 -->
  <rect x="50" y="355" width="320" height="90" rx="6" fill="#fef3c7" stroke="#fde68a" stroke-width="1"/>
  <text x="70" y="380" font-family="Arial" font-size="13" fill="#1e293b" font-weight="bold">Order #ORD-003</text>
  <text x="70" y="400" font-family="Arial" font-size="11" fill="#64748b">Delivery • Mike Johnson</text>
  <text x="70" y="420" font-family="Arial" font-size="11" fill="#64748b">3x Pasta Carbonara, 2x Garlic Bread</text>
  <text x="70" y="435" font-family="Arial" font-size="12" fill="#1e293b" font-weight="bold">₹1,247</text>
  <rect x="300" y="370" width="60" height="25" rx="4" fill="#3b82f6"/>
  <text x="330" y="387" font-family="Arial" font-size="11" fill="white" text-anchor="middle">Pending</text>
  <text x="330" y="430" font-family="Arial" font-size="10" fill="#64748b" text-anchor="middle">New</text>
  
  <!-- Order Details -->
  <rect x="410" y="135" width="360" height="325" rx="8" fill="white" stroke="#e2e8f0" stroke-width="1"/>
  <text x="590" y="165" font-family="Arial" font-size="16" fill="#1e293b" font-weight="bold" text-anchor="middle">Order Details</text>
  
  <!-- Selected Order Info -->
  <rect x="430" y="185" width="320" height="120" rx="6" fill="#fef3c7" stroke="#fde68a" stroke-width="1"/>
  <text x="450" y="210" font-family="Arial" font-size="14" fill="#1e293b" font-weight="bold">Order #ORD-001</text>
  <text x="450" y="230" font-family="Arial" font-size="11" fill="#64748b">Customer: John Doe</text>
  <text x="450" y="250" font-family="Arial" font-size="11" fill="#64748b">Table: 5</text>
  <text x="450" y="270" font-family="Arial" font-size="11" fill="#64748b">Order Time: 12:30 PM</text>
  <text x="450" y="290" font-family="Arial" font-size="13" fill="#1e293b" font-weight="bold">Total: ₹598</text>
  
  <!-- Items List -->
  <text x="430" y="330" font-family="Arial" font-size="13" fill="#1e293b" font-weight="bold">Items:</text>
  <text x="450" y="355" font-family="Arial" font-size="11" fill="#64748b">• 2x Margherita Pizza - ₹598</text>
  <text x="450" y="375" font-family="Arial" font-size="11" fill="#64748b">• 1x Coke - ₹50</text>
  
  <!-- Actions -->
  <rect x="430" y="400" width="100" height="35" rx="6" fill="#10b981"/>
  <text x="480" y="422" font-family="Arial" font-size="12" fill="white" text-anchor="middle" font-weight="bold">Mark Ready</text>
  
  <rect x="550" y="400" width="100" height="35" rx="6" fill="#3b82f6"/>
  <text x="600" y="422" font-family="Arial" font-size="12" fill="white" text-anchor="middle" font-weight="bold">Print</text>
  
  <rect x="670" y="400" width="80" height="35" rx="6" fill="white" stroke="#e2e8f0"/>
  <text x="710" y="422" font-family="Arial" font-size="12" fill="#64748b" text-anchor="middle">Cancel</text>
</svg>




